<?xml version="1.0" encoding="UTF-8" standalone="no"?>
<!-- Created with Serif DrawPlus 12,0,4,27 (May 24, 08:37:51) (http://www.serif.com) -->
<svg version="1.1" xmlns="http://www.w3.org/2000/svg" xmlns:xlink="http://www.w3.org/1999/xlink" width="816" height="1056">
	<g id="Layer_1">
		<path id="dp_path001" transform="matrix(1,0,0,1,106.92,951.701)" fill="black" stroke="black" stroke-width="2.66667" d="M 323.984,-803.165 C 324.08,-806.016 323.7,-808.581 322.749,-810.863 C 321.799,-813.049 319.993,-815.044 317.237,-816.755 C 324.365,-824.263 331.208,-832.152 337.955,-840.515 C 344.608,-848.879 348.219,-858.097 348.695,-868.265 C 348.695,-870.641 348.409,-873.303 347.839,-876.344 C 347.269,-879.385 346.413,-882.427 345.273,-885.277 L 315.621,-900.104 C 313.34,-895.067 310.869,-891.551 308.303,-889.459 C 305.643,-887.368 303.171,-886.419 300.891,-886.419 C 295.283,-886.799 289.961,-888.319 284.924,-890.98 C 279.887,-893.641 274.565,-895.161 269.052,-895.541 C 266.676,-895.637 264.205,-894.687 261.64,-892.596 C 258.979,-890.505 256.508,-886.988 254.227,-881.856 C 250.711,-883.567 247.193,-884.803 243.583,-885.468 C 239.971,-886.133 236.644,-886.513 233.793,-886.419 C 218.207,-884.897 208.039,-875.489 203.191,-858.001 C 198.249,-840.515 192.927,-824.168 186.94,-809.057 C 188.08,-806.681 188.745,-804.211 189.031,-801.644 C 189.22,-798.983 189.316,-796.512 189.316,-794.231 C 188.651,-782.256 183.233,-772.088 172.969,-763.724 C 162.8,-755.36 151.776,-747.663 139.991,-740.629 C 128.111,-733.597 119.463,-725.899 113.76,-717.82 C 106.443,-707.367 100.835,-695.392 97.0333,-681.896 C 93.232,-668.305 91.332,-654.051 91.332,-639.129 C 91.4267,-620.692 93.992,-603.015 98.84,-586.193 C 103.781,-569.371 110.339,-554.26 118.417,-541.049 C 107.963,-495.527 102.451,-450.669 101.785,-406.287 C 101.12,-361.999 99.8853,-315.525 97.984,-267.151 C 103.876,-267.816 107.773,-267.911 109.579,-267.34 C 111.48,-266.865 112.811,-265.249 113.665,-262.493 C 112.525,-258.503 111.669,-254.32 111.1,-249.948 C 110.624,-245.577 110.339,-241.395 110.339,-237.404 C 111.004,-219.251 113.76,-201.195 118.703,-183.232 C 123.644,-165.175 126.4,-146.263 127.161,-126.495 C 126.685,-113.759 124.024,-105.967 119.177,-102.829 C 114.236,-99.788 111.004,-98.4587 109.199,-99.028 C 102.356,-99.884 94.9427,-103.305 86.96,-109.292 C 78.976,-115.28 70.4227,-118.701 61.3,-119.556 C 59.0187,-119.652 56.7373,-119.272 54.4573,-118.607 C 52.176,-117.941 49.8947,-116.705 47.6147,-114.995 C 51.5107,-96.3667 58.2587,-78.6907 67.8573,-61.964 C 77.456,-45.332 90.476,-32.216 106.917,-22.7133 C 143.983,-19.0067 184.469,-15.4893 228.472,-12.164 C 272.379,-8.74267 316.381,-6.936 360.289,-6.74667 C 391.367,-6.74667 420.923,-7.88667 449.055,-10.2627 C 477.281,-12.7333 502.847,-16.44 525.845,-21.572 L 570.419,-48.7533 C 571.559,-52.08 572.413,-55.3107 572.984,-58.2573 C 573.555,-61.2027 573.84,-64.1493 573.84,-67 C 573.459,-82.2067 565.476,-91.52 550.08,-94.8467 C 534.589,-98.0773 514.441,-99.408 489.541,-98.7427 C 475.571,-98.5533 462.931,-99.3133 451.431,-100.929 C 439.931,-102.544 430.997,-106.441 424.535,-112.428 C 452.381,-138.089 474.715,-164.415 491.727,-191.405 C 508.739,-218.491 517.387,-246.527 517.863,-275.513 C 517.863,-280.076 517.672,-284.448 517.197,-288.535 C 516.721,-292.62 516.247,-296.707 515.581,-300.604 C 513.68,-315.905 508.928,-328.64 501.516,-338.715 C 494.008,-348.883 486.784,-358.481 479.752,-367.511 C 472.624,-376.444 468.728,-386.899 467.872,-398.779 C 446.679,-411.703 423.204,-422.252 397.449,-430.236 C 371.693,-438.219 347.649,-444.492 325.315,-448.959 C 348.124,-449.433 372.929,-452.095 399.729,-457.036 C 426.625,-461.979 451.431,-466.065 474.335,-469.487 C 483.173,-478.04 489.351,-489.729 492.867,-504.46 C 496.384,-519.191 498.095,-533.447 497.904,-547.132 C 497.239,-569.276 495.528,-592.465 492.772,-616.605 C 490.016,-640.745 490.301,-663.364 493.532,-684.367 C 494.483,-688.359 495.528,-696.057 496.668,-707.461 C 497.904,-718.867 496.384,-727.229 492.392,-732.361 L 481.177,-742.625 C 448.96,-757.927 419.688,-768.951 393.363,-775.699 C 367.037,-782.447 335.199,-782.067 297.944,-774.559 C 295.759,-781.591 298.609,-784.443 306.688,-783.017 C 314.765,-781.591 320.563,-785.297 323.984,-794.041 Z M 327.025,-884.708 C 330.637,-882.521 333.964,-880.051 337.005,-877.389 C 340.045,-874.633 341.661,-871.021 341.852,-866.555 C 341.187,-862.564 335.959,-855.34 325.98,-844.887 C 316.001,-834.527 304.977,-828.16 293.097,-825.784 C 290.341,-832.056 287.015,-836.143 282.928,-838.139 C 278.841,-840.229 273.9,-841.085 268.197,-840.895 C 264.205,-840.8 260.215,-840.42 256.223,-839.755 C 252.231,-839.089 248.239,-838.709 244.248,-838.613 C 240.827,-838.613 237.88,-838.899 235.504,-839.469 C 233.128,-840.04 231.037,-840.895 229.421,-842.035 C 228.187,-840.989 226.951,-839.755 225.715,-838.519 C 224.48,-837.188 223.815,-835.763 223.72,-834.052 C 223.624,-832.721 224.289,-831.105 225.715,-829.205 C 227.045,-827.304 229.421,-826.164 232.843,-825.973 L 247.669,-827.209 C 247.004,-824.739 246.528,-822.077 246.053,-819.321 C 245.579,-816.565 245.388,-813.809 245.388,-810.863 C 245.293,-805.16 246.528,-799.839 249.189,-794.896 C 251.851,-789.955 256.317,-785.773 262.495,-782.256 C 266.012,-782.161 269.243,-782.447 272.379,-783.301 C 275.42,-784.157 277.796,-786.439 279.601,-790.335 C 276.371,-780.925 273.995,-771.327 272.284,-761.728 C 270.668,-752.035 265.156,-743.576 255.652,-736.448 C 250.425,-736.828 245.103,-738.159 239.685,-740.44 C 234.173,-742.816 228.852,-744.147 223.72,-744.527 C 221.439,-744.527 219.063,-744.147 216.687,-743.196 C 214.311,-742.245 211.649,-740.44 208.893,-737.588 C 215.641,-733.597 222.579,-730.461 229.517,-727.989 C 236.455,-725.519 243.677,-724.283 251.091,-724.283 C 253.847,-724.188 256.603,-724.283 259.073,-724.379 C 261.64,-724.473 264.301,-724.853 267.057,-725.328 C 270.763,-729.32 274.184,-733.121 277.605,-736.543 C 280.932,-740.06 282.739,-743.956 283.023,-748.423 L 283.023,-750.704 C 290.151,-759.447 296.613,-764.769 302.411,-766.671 C 308.303,-768.571 315.051,-769.331 322.749,-768.951 C 337.765,-769.047 349.455,-768.761 357.819,-768.191 C 366.181,-767.62 373.024,-765.909 378.441,-763.249 C 376.351,-743.101 370.173,-723.808 359.909,-705.276 C 349.645,-686.743 333.868,-676.859 312.485,-675.529 C 305.072,-675.433 298.609,-675.053 293.097,-674.388 C 287.585,-673.723 283.879,-673.343 281.977,-673.248 C 265.631,-667.545 254.132,-659.277 247.669,-648.443 C 241.112,-637.704 237.975,-631.431 238.26,-629.625 C 238.071,-628.865 238.736,-628.96 240.256,-630.1 C 241.776,-631.147 245.388,-634.472 250.996,-639.984 L 261.544,-643.405 C 260.879,-638.939 260.404,-634.757 259.929,-631.051 C 259.453,-627.344 259.168,-623.828 259.168,-620.407 C 259.453,-606.911 260.595,-592.276 262.685,-576.499 C 264.681,-560.723 265.916,-545.612 266.201,-531.071 C 266.107,-528.22 265.916,-525.369 265.441,-522.517 C 264.965,-519.667 264.396,-516.815 263.825,-513.964 C 241.587,-522.993 226.476,-532.496 218.492,-542.476 C 210.509,-552.36 206.708,-559.583 207.183,-564.144 C 207.468,-573.839 208.513,-583.627 210.509,-593.416 C 212.409,-603.205 213.456,-612.993 213.74,-622.783 C 213.836,-630.765 212.695,-637.989 210.319,-644.641 C 208.039,-651.199 204.427,-657.281 199.485,-662.984 C 199.485,-656.711 199.675,-650.629 200.055,-644.736 C 200.34,-638.844 200.531,-633.047 200.625,-627.344 C 201.196,-608.147 197.393,-594.841 189.125,-587.333 C 180.952,-579.92 164.605,-576.404 140.087,-576.689 C 136.38,-576.784 133.433,-576.689 131.248,-576.595 C 128.967,-576.499 125.451,-576.119 120.699,-575.549 C 117.657,-587.239 115.091,-599.308 112.811,-611.948 C 110.529,-624.588 109.389,-637.039 109.199,-649.203 C 109.199,-661.273 110.435,-672.677 113.095,-683.512 C 115.756,-694.347 120.128,-704.611 126.4,-714.304 C 145.123,-725.804 162.611,-737.684 178.576,-750.133 C 194.637,-762.584 203.191,-778.74 204.141,-798.793 C 204.236,-800.504 204.141,-802.404 204.047,-804.495 C 203.952,-806.491 203.572,-808.392 203.001,-810.197 L 197.299,-810.197 C 198.724,-817.705 202.716,-824.073 209.179,-829.3 C 215.547,-834.527 219.252,-841.465 220.108,-850.113 C 220.108,-851.824 219.823,-853.725 219.252,-855.911 C 218.683,-858.097 217.827,-860.283 216.687,-862.564 C 219.063,-861.423 221.439,-860.568 224.1,-859.997 C 226.665,-859.523 229.136,-859.237 231.512,-859.237 C 234.459,-859.237 237.595,-859.427 241.112,-859.808 C 244.628,-860.092 247.859,-860.283 250.805,-860.283 L 271.809,-885.848 C 277.511,-884.517 283.593,-880.905 289.961,-875.204 C 296.424,-869.407 302.696,-866.175 308.968,-865.415 C 311.249,-865.32 313.531,-866.271 315.716,-868.361 C 317.997,-870.452 320.279,-873.968 322.559,-879.005 Z M 280.837,-509.403 C 279.697,-518.811 278.841,-528.695 278.271,-538.959 C 277.701,-549.223 277.416,-558.441 277.416,-566.711 C 277.416,-579.636 278.081,-593.036 279.412,-607.007 C 280.743,-620.881 283.119,-636.848 286.444,-655 C 304.407,-658.517 320.659,-663.459 335.389,-669.636 C 350.025,-675.909 363.616,-679.425 376.065,-680.091 C 388.325,-680.565 401.06,-675.624 414.271,-665.264 C 427.385,-654.811 435.559,-636.183 438.791,-609.097 C 439.836,-598.739 440.501,-590.66 440.787,-584.957 C 440.976,-579.255 441.072,-573.173 441.072,-566.711 C 440.407,-553.691 434.609,-543.331 423.68,-535.633 C 412.751,-527.935 404.101,-518.431 397.735,-507.121 Z M 452.285,-602.255 C 450.005,-628.58 444.493,-650.059 435.559,-666.785 C 426.72,-683.512 408.093,-695.487 379.581,-702.9 L 393.267,-758.687 L 395.548,-758.687 C 411.135,-756.216 425.58,-750.799 439.076,-742.531 C 452.571,-734.263 466.921,-727.42 482.033,-722.192 C 481.463,-708.983 481.083,-700.239 480.892,-696.057 C 480.607,-691.875 480.227,-689.119 479.752,-687.979 C 477.091,-669.921 477.281,-649.013 480.227,-625.253 C 483.268,-601.495 485.073,-578.495 485.739,-556.161 C 485.835,-543.045 484.124,-529.456 480.607,-515.58 C 476.996,-501.609 470.723,-491.155 461.789,-484.312 C 463.12,-487.448 464.071,-491.345 464.641,-495.812 C 465.307,-500.279 465.591,-506.741 465.591,-515.104 C 465.496,-521.377 464.831,-527.649 463.596,-533.923 C 462.36,-540.195 461.124,-546.467 459.889,-552.74 C 457.799,-559.583 455.992,-566.425 454.567,-573.173 C 453.141,-579.92 452.381,-586.383 452.285,-592.656 Z M 203.856,-532.212 C 214.025,-517.385 228.947,-506.267 248.62,-498.853 C 268.197,-491.44 289.391,-487.733 312.2,-487.733 C 323.319,-487.448 337.671,-488.304 355.347,-490.015 C 373.024,-491.725 390.036,-495.717 406.477,-501.704 C 422.824,-507.787 434.513,-517.196 441.641,-529.931 C 443.923,-527.175 445.823,-524.228 447.344,-521.187 C 448.769,-518.145 449.529,-515.485 449.625,-513.109 C 449.244,-503.509 446.299,-495.527 440.881,-489.159 C 435.559,-482.887 430.047,-477.945 424.535,-474.619 C 391.081,-470.247 358.199,-465.875 325.885,-461.408 C 293.572,-456.941 264.111,-454.565 237.5,-454.185 C 220.773,-453.995 206.043,-456.941 193.117,-463.119 C 180.287,-469.296 170.403,-479.94 163.371,-494.956 C 154.721,-502.084 148.924,-510.543 145.788,-520.521 C 142.747,-530.405 139.516,-540.004 136,-549.319 C 141.892,-551.884 148.355,-554.545 155.483,-557.301 C 162.705,-560.057 169.453,-561.579 175.915,-561.863 C 181.617,-561.959 186.749,-560.628 191.312,-557.872 C 195.873,-555.116 199.865,-550.364 203.287,-543.711 Z M 297.564,-448.863 C 312.865,-438.599 334.248,-430.425 361.905,-424.533 C 389.561,-418.641 414.08,-408.567 435.559,-394.407 C 422.919,-377.584 412.369,-363.995 403.912,-353.825 C 395.548,-343.561 386.709,-334.628 377.396,-327.024 C 369.793,-337.859 355.917,-344.512 335.959,-346.888 C 316.001,-349.263 297.184,-350.973 279.317,-352.02 C 261.544,-353.065 252.041,-356.867 250.805,-363.519 C 250.805,-367.511 251.185,-371.597 252.136,-375.684 C 253.087,-379.865 254.892,-384.237 257.648,-388.799 C 257.173,-389.94 256.792,-391.271 256.697,-392.696 C 256.603,-394.121 256.508,-395.452 256.508,-396.592 C 256.508,-398.873 256.888,-400.773 257.553,-402.484 C 258.219,-404.195 259.453,-405.621 261.069,-406.667 L 259.929,-406.667 C 251.66,-405.431 244.437,-395.357 238.355,-376.444 C 232.273,-357.532 226.951,-337.479 222.389,-316.191 C 217.923,-294.901 213.74,-280.076 210.129,-271.617 C 194.257,-274.183 178.956,-278.745 164.131,-285.303 C 149.305,-291.956 133.624,-295.661 117.277,-296.423 C 117.181,-301.175 116.421,-309.252 115.187,-320.752 C 113.856,-332.252 112.62,-343.751 111.289,-355.156 C 110.053,-366.655 109.293,-374.828 109.199,-379.58 C 108.913,-396.972 113.285,-411.228 122.599,-422.443 C 131.817,-433.563 147.975,-439.359 171.164,-439.74 C 178.576,-439.74 185.419,-438.979 191.596,-437.364 C 197.775,-435.748 203.191,-433.563 207.753,-430.616 Z M 149.115,-112.428 C 141.416,-136.283 135.619,-161.563 131.723,-188.173 C 127.827,-214.784 126.685,-241.871 128.207,-269.336 L 198.344,-257.932 L 167.457,-113.569 Z M 305.832,-814.569 C 309.633,-812.764 311.82,-810.577 312.295,-807.821 C 312.771,-805.065 312.96,-802.024 312.771,-798.508 C 311.44,-795.276 309.349,-793.376 306.403,-792.901 C 303.361,-792.425 300.129,-791.951 296.519,-791.571 Z M 119.463,-450.384 C 118.892,-452.569 118.417,-454.756 117.943,-456.751 C 117.467,-458.843 117.277,-461.313 117.181,-464.069 C 117.752,-470.817 119.557,-479.275 122.789,-489.444 C 126.02,-499.613 127.541,-512.064 127.445,-526.889 C 129.252,-516.435 133.908,-505.885 141.416,-495.432 C 148.924,-484.977 158.713,-475.664 170.783,-467.491 Z M 223.244,-22.9973 C 230.183,-22.9027 236.075,-24.424 240.731,-27.3693 C 245.388,-30.4107 247.764,-34.972 247.955,-41.2453 C 247.859,-43.9067 246.719,-48.7533 244.628,-55.6907 C 242.537,-62.6293 240.351,-69.0907 237.975,-75.1733 C 242.632,-74.224 250.14,-74.128 260.499,-75.1733 C 270.953,-76.124 281.217,-77.264 291.481,-78.5947 C 301.651,-79.9253 308.779,-80.6853 312.771,-80.876 C 319.613,-80.9707 325.315,-79.8307 329.877,-77.5493 C 334.439,-75.2693 337.005,-71.0867 337.671,-65.004 C 348.219,-53.8853 360.669,-44.3813 375.211,-36.3987 C 389.845,-28.4147 403.912,-23.4733 417.597,-21.572 Z M 410.755,-250.519 C 407.903,-229.991 401.06,-208.607 390.131,-186.463 C 379.201,-164.32 366.847,-145.027 353.256,-128.491 C 343.848,-126.209 336.244,-121.267 330.637,-113.664 C 325.029,-105.967 319.993,-98.7427 315.716,-91.996 C 311.629,-93.0413 307.448,-93.7067 303.171,-93.896 C 298.895,-94.1813 294.713,-94.276 290.627,-94.1813 C 283.688,-94.1813 276.465,-93.9907 269.052,-93.6107 C 261.544,-93.3253 254.321,-93.136 247.384,-93.0413 C 235.315,-92.756 224.289,-94.4667 214.405,-98.1733 C 204.427,-101.88 196.539,-109.292 190.741,-120.507 C 195.017,-135.333 197.299,-151.584 197.489,-169.071 C 197.584,-186.653 199.389,-202.715 202.907,-217.445 C 206.328,-232.176 215.071,-242.821 229.136,-249.379 C 228.661,-252.8 228.281,-255.936 228.187,-258.977 C 228.091,-261.924 227.996,-264.775 227.996,-267.625 C 228.091,-277.795 228.852,-288.059 230.467,-298.608 C 232.083,-309.157 234.268,-320.847 237.12,-333.867 C 257.077,-339.569 281.028,-340.709 309.253,-337.099 C 337.385,-333.392 361.905,-324.553 382.719,-310.393 C 403.531,-296.232 412.845,-276.275 410.755,-250.519 Z M 498.664,-240.255 C 489.921,-218.871 476.236,-195.207 457.799,-169.261 C 439.36,-143.316 420.543,-123.643 401.44,-110.148 C 399.825,-109.672 398.304,-109.292 396.879,-109.197 C 395.453,-109.103 393.932,-109.007 392.221,-109.007 C 388.231,-109.103 384.429,-109.863 381.007,-111.479 C 377.585,-113.093 374.355,-115.28 371.504,-118.131 C 375.875,-131.247 382.719,-145.501 392.127,-160.993 C 401.536,-176.484 410.279,-192.356 418.357,-208.417 C 426.436,-224.573 430.807,-240.16 431.283,-255.08 C 431.472,-275.229 429.192,-290.625 424.629,-301.175 C 419.973,-311.723 412.275,-319.992 401.44,-325.884 C 404.196,-329.971 409.993,-336.243 419.117,-344.512 C 428.241,-352.78 438.411,-365.609 449.529,-382.812 C 465.687,-371.977 478.231,-354.965 487.26,-331.681 C 496.193,-308.397 500.755,-285.968 500.945,-264.204 C 500.851,-260.117 500.66,-256.031 500.185,-251.849 C 499.709,-247.572 499.235,-243.771 498.664,-240.255 Z M 235.789,-39.82 C 231.797,-36.968 227.521,-34.972 222.959,-33.6427 C 218.492,-32.4067 213.645,-31.836 208.513,-31.836 C 193.497,-32.312 178.481,-37.064 163.751,-45.9027 C 148.924,-54.836 136.189,-65.004 125.64,-76.3147 C 141.701,-63.104 158.999,-54.74 177.721,-51.0347 C 196.444,-47.4227 215.831,-45.6173 235.789,-45.5213 Z M 166.696,-67.38 C 160.899,-72.7027 154.341,-77.8347 146.929,-82.6813 C 139.516,-87.528 135.524,-92.5653 134.764,-97.6027 L 134.764,-98.7427 C 137.615,-98.7427 140.276,-98.9333 142.652,-99.3133 C 145.028,-99.5987 147.404,-99.788 149.589,-99.884 C 158.048,-99.884 165.176,-99.028 171.164,-97.3173 C 177.151,-95.6067 182.853,-93.0413 188.365,-89.62 C 193.403,-87.0533 198.724,-83.8227 204.332,-80.02 C 209.939,-76.2187 216.401,-71.9427 223.72,-67.38 Z M 361.24,-113.284 L 361.24,-111.003 C 361.905,-104.92 368.463,-101.784 380.912,-101.689 C 393.363,-101.499 407.333,-99.884 422.919,-96.8427 C 438.505,-93.8013 451.336,-84.868 461.6,-69.9467 C 457.513,-68.3307 453.141,-67.096 448.484,-66.4307 C 443.828,-65.7653 439.456,-65.3853 435.369,-65.3853 C 419.212,-65.9547 403.341,-69.756 387.565,-76.98 C 371.884,-84.2027 357.437,-91.7107 344.132,-99.5987 Z M 468.917,-53.5053 C 462.645,-46.6627 456.183,-41.72 449.529,-38.6787 C 442.972,-35.5427 436.509,-34.0227 430.141,-34.1173 C 415.125,-34.8773 400.871,-40.2 387.469,-49.8933 C 374.069,-59.6827 362.38,-69.2813 352.591,-78.5947 C 368.177,-70.7067 383.099,-64.0547 397.164,-58.732 C 411.324,-53.5053 426.056,-50.7493 441.261,-50.5587 C 449.909,-50.1787 458.844,-51.1293 468.063,-53.5053 Z M 190.267,21.7653 C 196.253,21.1 200.34,21.0053 202.525,21.2893 C 204.712,21.6693 206.328,23 207.277,25.1867 C 205.472,28.5133 203.287,30.508 200.531,31.0787 C 197.775,31.5533 194.733,32.0293 191.312,32.4093 Z M 261.355,-799.459 L 264.776,-823.693 L 283.023,-819.131 C 280.267,-816.945 278.652,-814.76 278.176,-812.384 C 277.701,-810.008 277.796,-806.111 278.461,-800.599 Z M 111.955,-34.0227 L 59.4933,-110.433 C 80.4027,-105.301 94.3733,-97.412 101.311,-86.6733 C 108.343,-76.0293 114.901,-65.86 120.984,-56.1667 C 127.065,-46.472 139.231,-40.58 157.573,-38.584 C 164.036,-35.6373 169.263,-34.0227 173.255,-33.5467 C 177.151,-33.072 181.808,-30.6013 187.225,-26.0387 Z M 471.199,-87.528 C 479.847,-88.0987 491.441,-88.2893 506.077,-88.1933 C 520.619,-88.004 533.828,-86.2933 545.708,-83.0613 C 557.683,-79.736 563.956,-73.6533 564.716,-64.72 C 564.621,-64.1493 564.431,-63.3893 564.145,-62.344 C 563.765,-61.2987 563.575,-60.2533 563.575,-59.112 C 558.443,-50.5587 549.795,-44.3813 537.535,-40.58 C 525.275,-36.7787 512.729,-34.4027 499.805,-33.2613 C 486.975,-32.1213 476.996,-31.2667 470.057,-30.696 C 476.331,-34.212 481.368,-39.344 484.979,-45.9027 C 488.591,-52.46 490.491,-59.492 490.587,-67 C 490.587,-68.8067 490.491,-70.7067 490.396,-72.7027 C 490.301,-74.7933 489.921,-76.6947 489.445,-78.4053 Z M 217.637,1.14133 C 206.328,0.381333 196.159,1.90267 187.225,5.704 C 178.291,9.50533 173.635,16.728 173.159,27.372 C 173.54,34.9747 176.2,40.6773 181.143,44.4787 C 186.084,48.376 191.027,50.276 195.968,50.276 C 197.109,50.372 198.344,50.276 199.58,49.9907 C 200.815,49.8013 202.336,49.136 203.952,48.0907 C 211.175,48.1853 216.401,45.7147 219.537,40.6773 C 222.769,35.64 224.289,30.0333 224.195,23.9507 C 224.385,19.864 223.909,15.7773 222.769,11.6907 C 221.628,7.604 219.917,4.088 217.637,1.14133 Z M 490.491,21.48 C 487.545,17.6787 483.744,14.9227 479.181,13.116 C 474.715,11.4053 470.057,10.456 465.401,10.5507 C 458.083,10.456 451.051,12.2613 444.303,15.7773 C 437.555,19.2947 433.944,24.996 433.468,32.7893 C 433.468,40.9627 435.179,47.2347 438.696,51.892 C 442.307,56.4533 447.724,58.8293 455.137,58.8293 C 464.26,58.3547 472.719,54.1733 480.512,46.1893 C 488.211,38.3013 491.536,30.0333 490.491,21.48 Z M 458.559,40.012 L 457.417,23.6653 L 467.681,22.62 L 469.108,40.012 Z "/>
	</g>
</svg>